# xmcd CD database file
#
# Track frame offsets:
#	150
#	5365
#	56820
#	66605
#	74317
#	81802
#	103712
#	123337
#	145305
#	162930
#	181395
#	194310
#	237522
#	243307
#
# Disc length: 3296 seconds
#
# Revision: 0
# Processed by: cddbd v1.5.2PL0 Copyright (c) Steve Scherf et al.
# Submitted via: CDex 1.50Beta7
#
DISCID=ca0cde0e
DTITLE=Dr Dingo - New Age
DYEAR=1991
DGENRE=New Age
TTITLE0=Today
TTITLE1=New Age
TTITLE2=Hidden
TTITLE3=Eaten
TTITLE4=Taken Care Of
TTITLE5=Disintegrating
TTITLE6=Illusions
TTITLE7=Is
TTITLE8=Material World
TTITLE9=Past
TTITLE10=Dont Worry
TTITLE11=Future
TTITLE12=6629
TTITLE13=Psalm 21
EXTD=YEAR: 1991
EXTT0=
EXTT1=
EXTT2=
EXTT3=
EXTT4=
EXTT5=
EXTT6=
EXTT7=
EXTT8=
EXTT9=
EXTT10=
EXTT11=
EXTT12=
EXTT13=
PLAYORDER=
